<?xml version="1.0" standalone="no"?>
<!DOCTYPE svg PUBLIC "-//W3C//DTD SVG 20010904//EN"
 "http://www.w3.org/TR/2001/REC-SVG-20010904/DTD/svg10.dtd">
<svg version="1.0" xmlns="http://www.w3.org/2000/svg"
 width="1024.000000pt" height="1024.000000pt" viewBox="0 0 1024.000000 1024.000000"
 preserveAspectRatio="xMidYMid meet">
<metadata>
Created by potrace 1.14, written by Peter Selinger 2001-2017
</metadata>
<g transform="translate(0.000000,1024.000000) scale(0.100000,-0.100000)"
fill="#000000" stroke="none">
<path d="M4408 10143 c7 -3 16 -2 19 1 4 3 -2 6 -13 5 -11 0 -14 -3 -6 -6z"/>
<path d="M5818 10143 c7 -3 16 -2 19 1 4 3 -2 6 -13 5 -11 0 -14 -3 -6 -6z"/>
<path d="M4328 10133 c7 -3 16 -2 19 1 4 3 -2 6 -13 5 -11 0 -14 -3 -6 -6z"/>
<path d="M5095 10130 l-160 -6 194 -2 c107 -1 192 0 190 2 -11 9 -77 11 -224
6z"/>
<path d="M4743 10103 c9 -2 23 -2 30 0 6 3 -1 5 -18 5 -16 0 -22 -2 -12 -5z"/>
<path d="M5498 10103 c7 -3 16 -2 19 1 4 3 -2 6 -13 5 -11 0 -14 -3 -6 -6z"/>
<path d="M4884 10089 c-93 -4 -222 -12 -285 -18 -224 -23 -626 -99 -769 -145
-25 -9 -74 -22 -110 -31 -120 -30 -354 -115 -629 -230 -183 -76 -469 -235
-724 -402 -543 -356 -1035 -852 -1414 -1423 -112 -169 -161 -255 -272 -477
-78 -155 -151 -310 -151 -320 0 -4 -9 -25 -19 -47 -22 -45 -75 -190 -114 -306
-127 -378 -209 -783 -238 -1180 -15 -204 -6 -801 15 -965 77 -606 230 -1115
492 -1642 152 -306 260 -480 460 -748 223 -298 431 -524 712 -774 363 -323
834 -625 1272 -816 531 -231 1026 -357 1590 -406 332 -28 587 -24 1005 17 302
30 711 123 1025 232 270 94 551 217 745 325 469 261 780 493 1157 864 238 234
450 492 652 796 171 257 370 645 486 947 224 584 334 1203 324 1825 -4 304
-33 655 -64 775 -4 19 -14 69 -20 110 -17 111 -75 344 -126 515 -42 140 -138
408 -154 430 -3 6 -15 33 -25 60 -25 72 -221 464 -290 581 -347 591 -870 1161
-1415 1541 -335 233 -681 424 -1000 552 -119 47 -416 147 -565 190 -208 60
-517 120 -750 146 -123 14 -535 37 -600 33 -16 0 -107 -4 -201 -9z m586 -89
c623 -44 1210 -201 1785 -479 229 -111 355 -183 585 -336 280 -186 470 -344
736 -610 287 -286 476 -519 673 -829 398 -625 642 -1313 732 -2061 27 -219 37
-685 20 -917 -75 -1027 -465 -1994 -1123 -2784 -434 -521 -1002 -967 -1603
-1259 -581 -282 -1160 -439 -1795 -486 -195 -15 -705 -6 -891 15 -1070 120
-2042 569 -2821 1302 -901 848 -1438 1977 -1528 3214 -36 491 11 1040 130
1525 265 1079 913 2058 1806 2732 749 564 1650 904 2579 972 162 12 549 12
715 1z"/>
<path d="M4900 9834 c-25 -2 -106 -8 -180 -14 -989 -81 -1917 -469 -2686
-1126 -66 -56 -200 -184 -299 -285 -895 -913 -1374 -2131 -1342 -3409 17 -660
152 -1250 427 -1860 51 -113 71 -152 173 -335 401 -721 1014 -1347 1742 -1775
113 -66 409 -215 538 -269 1130 -480 2443 -495 3584 -41 881 351 1658 979
2184 1765 158 237 343 583 448 840 266 652 384 1373 341 2070 -86 1377 -742
2612 -1840 3466 -644 501 -1463 838 -2284 939 -255 32 -624 47 -806 34z m1410
-979 l5 -70 68 -3 c48 -2 70 -7 74 -18 11 -29 -17 -44 -83 -44 l-64 0 0 -64
c0 -44 -5 -67 -15 -76 -28 -23 -45 5 -45 76 l0 64 -64 0 c-66 0 -94 15 -83 44
4 11 26 16 74 18 l68 3 3 60 c3 78 7 87 34 83 21 -3 23 -10 28 -73z m-3283 13
l33 -32 33 32 c58 56 81 30 27 -31 l-29 -34 29 -28 c55 -52 31 -83 -25 -34
l-36 32 -32 -32 c-18 -17 -38 -31 -45 -31 -21 0 -13 36 13 60 32 30 31 37 -6
76 -29 30 -32 54 -6 54 6 0 26 -14 44 -32z m803 -412 c0 -2 -18 -15 -40 -30
-22 -14 -40 -24 -40 -22 0 5 71 56 77 56 2 0 3 -2 3 -4z m-165 -130 c-44 -40
-109 -112 -144 -160 -57 -76 -86 -109 -65 -73 43 74 258 307 283 307 3 0 -30
-33 -74 -74z m1809 -57 c23 -18 27 -28 24 -62 -2 -34 -9 -45 -37 -64 -19 -13
-40 -23 -48 -23 -22 0 -60 47 -67 83 -6 27 -2 36 24 60 36 32 68 34 104 6z
m-2033 -216 c-5 -10 -17 -27 -26 -38 -16 -19 -17 -19 -3 5 26 46 29 50 34 50
3 0 0 -8 -5 -17z m950 -53 c41 -23 11 -78 -36 -66 -34 9 -42 32 -20 56 21 23
29 24 56 10z m-1008 -45 c-3 -9 -8 -14 -10 -11 -3 3 -2 9 2 15 9 16 15 13 8
-4z m-77 -162 c-8 -15 -15 -25 -16 -21 0 12 23 58 27 54 3 -2 -2 -17 -11 -33z
m-25 -60 c-12 -20 -14 -14 -5 12 4 9 9 14 11 11 3 -2 0 -13 -6 -23z m-20 -57
c-14 -36 -22 -33 -9 5 6 16 12 28 14 26 3 -2 0 -16 -5 -31z m-11 -53 c0 -5
-12 -48 -26 -98 -34 -123 -81 -350 -95 -466 -11 -93 -11 -97 11 -127 16 -22
21 -40 18 -66 -2 -23 0 -36 8 -36 17 0 361 55 529 85 159 28 380 78 530 119
133 36 441 149 580 211 67 30 126 55 132 55 5 0 48 25 97 55 l87 55 27 -18
c15 -10 42 -28 59 -40 77 -53 406 -188 666 -274 290 -96 459 -133 1047 -231
l195 -33 -2 -269 c-4 -436 -36 -793 -104 -1165 -31 -172 -95 -432 -131 -535
-44 -128 -88 -242 -112 -298 -14 -32 -26 -60 -26 -63 0 -8 0 -8 163 70 76 36
135 61 131 55 -3 -6 -76 -45 -160 -86 l-154 -75 -55 -107 c-30 -58 -85 -154
-123 -212 l-69 -105 -79 -17 c-188 -40 -418 -50 -596 -26 -88 12 -101 21 -75
48 10 12 8 13 -8 6 -11 -4 -47 -16 -80 -28 -33 -11 -84 -40 -113 -64 -59 -47
-64 -48 -111 -32 -37 13 -101 -2 -136 -32 -11 -9 -44 -22 -72 -30 -29 -7 -51
-15 -48 -17 2 -3 35 3 72 13 l68 17 80 -30 c99 -39 274 -86 380 -103 47 -8
162 -13 281 -14 l201 0 -72 -85 c-173 -203 -428 -427 -665 -584 -239 -158
-313 -201 -330 -191 -16 10 -11 -12 6 -29 19 -20 14 -20 -22 -1 -16 8 -39 15
-51 15 -76 0 -540 309 -748 500 -33 30 -99 94 -146 143 l-85 88 -92 -21 c-51
-11 -94 -20 -97 -20 -3 0 -5 -9 -5 -20 0 -12 -7 -31 -15 -44 -16 -25 -16 -26
162 -336 l15 -25 -19 24 c-10 13 -55 87 -100 165 l-81 141 -36 -3 c-30 -3 -42
2 -67 29 l-30 32 -75 -13 c-42 -6 -78 -10 -80 -7 -2 2 29 10 70 17 40 7 78 15
83 19 5 3 20 24 32 47 l23 41 -27 52 c-14 29 -25 55 -22 57 2 2 16 -23 32 -56
20 -42 34 -60 47 -60 23 0 59 -18 73 -37 9 -12 23 -11 90 3 108 23 114 29 73
73 -19 20 -43 47 -53 60 l-20 24 68 -7 c45 -4 67 -3 67 4 0 7 7 7 21 -1 16 -8
61 -7 183 6 179 18 171 17 314 52 87 22 106 24 126 13 30 -15 109 -6 131 17 9
8 28 19 43 24 21 6 17 7 -18 3 -43 -4 -49 -2 -138 64 l-92 69 42 12 c24 7 78
29 121 49 71 32 81 34 100 22 98 -63 199 -120 213 -120 10 0 14 -6 11 -14 -4
-10 3 -13 27 -11 51 5 117 27 113 38 -2 6 -23 18 -48 26 -24 9 -46 19 -49 22
-3 3 -13 10 -24 16 -16 9 -8 17 60 65 300 212 555 562 673 923 63 193 101 476
86 644 l-7 78 -121 33 c-254 67 -619 208 -750 289 l-34 21 -94 -49 c-169 -89
-528 -223 -727 -272 l-90 -22 -8 -86 c-14 -170 23 -448 86 -643 59 -179 196
-433 301 -558 21 -25 39 -51 39 -57 0 -12 -135 -51 -207 -60 l-48 -5 -71 108
c-131 201 -212 373 -260 552 -14 53 -27 99 -29 102 -6 10 -34 183 -45 280 -19
166 -10 464 16 553 4 12 16 17 45 17 85 0 436 105 699 210 148 58 364 162 374
179 4 5 31 -5 61 -24 120 -72 442 -204 687 -281 152 -48 333 -94 367 -94 34 0
36 -7 52 -184 28 -294 -23 -645 -133 -921 -99 -249 -255 -495 -433 -682 -41
-42 -72 -79 -71 -81 2 -2 34 7 71 20 57 19 75 32 114 77 80 95 65 88 170 77
86 -9 100 -8 150 11 126 48 257 105 275 121 27 24 157 297 205 430 86 236 154
528 192 820 19 151 20 178 8 214 -12 37 -11 44 9 78 20 36 22 59 34 374 6 185
9 339 5 342 -4 4 -136 28 -294 55 -318 53 -477 86 -628 129 -253 73 -639 222
-750 289 -37 23 -72 41 -77 41 -5 0 -23 -9 -39 -20 -77 -55 -433 -202 -689
-285 -201 -64 -425 -112 -830 -174 -74 -12 -148 -24 -164 -27 l-28 -6 6 -232
c27 -912 166 -1556 434 -2006 l69 -115 79 -18 c129 -30 356 -27 515 6 120 25
263 73 346 115 l38 20 69 -60 c37 -32 79 -66 92 -75 31 -20 30 -29 -6 -48 -32
-17 -42 -39 -12 -28 11 4 14 3 7 -4 -5 -6 -37 -17 -70 -26 -33 -8 -99 -31
-147 -51 -226 -94 -518 -129 -838 -101 -41 3 -121 19 -162 31 -20 6 -112 146
-197 299 -302 547 -470 1362 -471 2283 0 215 -13 268 -26 105 -14 -186 12
-667 51 -933 38 -266 58 -385 81 -484 13 -60 24 -114 24 -120 -1 -21 -30 57
-35 93 -5 37 -31 170 -59 296 -21 97 -63 423 -76 584 -5 74 -10 253 -10 398 0
210 -3 263 -13 263 -7 0 -23 9 -35 20 -46 44 -16 150 43 150 20 0 23 8 34 103
30 250 110 567 143 567 4 0 8 -3 8 -7z m3845 -28 c27 -26 32 -70 12 -96 -7 -9
-26 -23 -44 -33 -32 -16 -33 -16 -69 16 -32 28 -35 36 -30 67 11 69 84 94 131
46z m-4036 -275 c-29 -33 -55 -58 -57 -55 -5 5 97 115 106 115 2 0 -20 -27
-49 -60z m4673 -288 c10 -8 20 -23 23 -33 5 -15 16 -19 56 -19 63 0 332 -29
339 -37 3 -3 -24 -2 -60 2 -183 20 -239 25 -283 25 -41 0 -49 -3 -57 -24 -20
-53 -96 -63 -129 -18 -40 53 -42 54 -82 49 -22 -3 -37 -1 -33 4 3 5 25 9 48 9
36 0 47 5 60 26 30 44 79 51 118 16z m471 -99 c-7 -2 -21 -2 -30 0 -10 3 -4 5
12 5 17 0 24 -2 18 -5z m97 -14 c28 -6 50 -13 47 -15 -2 -2 -33 2 -68 10 -35
8 -56 14 -47 15 9 1 40 -4 68 -10z m-5580 -28 c0 -4 -10 -17 -23 -29 -22 -21
-23 -21 -39 -3 -13 15 -13 19 -1 27 18 11 63 15 63 5z m5667 3 c-3 -3 -12 -4
-19 -1 -8 3 -5 6 6 6 11 1 17 -2 13 -5z m101 -28 c62 -22 117 -45 102 -45 -12
0 -194 68 -184 68 6 1 43 -10 82 -23z m-5853 -98 c-108 -189 -195 -385 -195
-444 0 -16 -2 -47 -5 -69 -3 -22 -7 -56 -9 -75 -6 -53 -17 -79 -30 -74 -18 7
-41 -25 -61 -84 -9 -29 -29 -66 -45 -83 -27 -30 -69 -145 -110 -299 l-19 -75
6 60 c3 33 7 68 9 78 2 10 4 48 5 85 2 125 48 381 78 441 10 20 22 47 26 61 4
14 22 43 40 66 19 22 61 87 96 145 34 57 83 127 109 154 26 28 66 78 89 113
23 34 44 62 47 62 3 0 -11 -28 -31 -62z m6055 8 c42 -24 99 -65 127 -90 53
-48 116 -140 127 -186 3 -15 0 -12 -10 10 -48 106 -147 204 -275 271 -54 29
-68 39 -53 39 5 0 43 -20 84 -44z m-779 -52 c17 -21 0 -49 -31 -49 -31 0 -48
28 -31 49 8 9 21 16 31 16 10 0 23 -7 31 -16z m1046 -276 c-3 -8 -6 -5 -6 6
-1 11 2 17 5 13 3 -3 4 -12 1 -19z m10 -125 c-3 -10 -5 -2 -5 17 0 19 2 27 5
18 2 -10 2 -26 0 -35z m-10 -85 c-3 -8 -6 -5 -6 6 -1 11 2 17 5 13 3 -3 4 -12
1 -19z m-71 -194 c-27 -52 -50 -93 -52 -91 -5 5 90 195 95 190 3 -2 -17 -46
-43 -99z m-6406 91 c0 -12 -24 -55 -32 -55 -11 0 -10 4 4 35 9 21 28 35 28 20z
m2769 -293 c155 -79 317 -143 441 -176 l85 -23 3 -64 c5 -77 -12 -253 -34
-364 -21 -102 -74 -256 -127 -365 -47 -96 -156 -264 -213 -328 l-39 -43 -65
44 c-36 25 -76 56 -89 70 l-23 25 53 64 c185 222 287 465 314 748 l6 65 -68
24 c-96 34 -271 113 -321 145 -23 14 -46 26 -51 26 -6 0 -34 -14 -63 -31 -55
-33 -310 -144 -355 -155 -26 -7 -26 -7 -19 -86 14 -167 54 -304 133 -461 131
-257 337 -476 558 -592 83 -43 92 -70 35 -96 -19 -9 -57 -35 -85 -58 -27 -22
-52 -41 -55 -41 -4 0 -15 7 -26 15 -10 8 -32 15 -47 15 -18 0 -27 5 -25 14 2
8 -22 31 -52 52 -161 109 -286 237 -393 399 -173 262 -252 511 -264 830 l-6
150 79 18 c130 31 485 179 549 230 11 9 22 17 24 17 3 0 66 -31 140 -68z
m2966 29 c17 -9 61 -57 99 -106 43 -57 75 -90 87 -90 23 -1 308 -377 290 -383
-19 -6 -13 -21 47 -100 77 -101 92 -131 92 -189 0 -55 -24 -102 -67 -130 -24
-16 -60 -19 -343 -23 l-315 -5 -260 -192 c-143 -106 -271 -199 -285 -205 -14
-7 -57 -32 -97 -56 -39 -23 -73 -42 -76 -42 -5 0 -138 173 -207 270 l-53 74
69 64 c38 35 112 95 164 134 52 39 102 79 111 88 9 9 90 71 180 137 l164 121
29 109 c82 308 133 461 163 493 55 59 138 71 208 31z m546 -100 c-23 -44 -88
-105 -137 -129 -35 -16 -36 -16 -55 8 -27 35 -24 44 24 85 43 39 90 63 142 75
43 10 47 4 26 -39z m164 -202 c-26 -49 -81 -104 -131 -130 l-45 -24 -24 30
-24 30 37 38 c45 46 124 87 169 87 l34 0 -16 -31z m-6805 -194 c17 -20 3 -54
-26 -61 -42 -11 -72 34 -42 64 16 16 53 15 68 -3z m-385 -270 c63 -62 -9 -166
-86 -124 -17 9 -34 -1 -117 -67 -124 -100 -336 -306 -419 -409 -35 -44 -87
-116 -114 -160 -27 -43 -49 -74 -49 -68 0 23 140 220 223 314 90 101 249 249
371 346 l74 58 -5 46 c-5 41 -3 48 22 67 36 29 70 28 100 -3z m1542 -67 c-3
-8 -6 -5 -6 6 -1 11 2 17 5 13 3 -3 4 -12 1 -19z m10 -40 c-3 -8 -6 -5 -6 6
-1 11 2 17 5 13 3 -3 4 -12 1 -19z m-1283 -1 c36 -26 -4 -84 -41 -61 -25 16
-28 45 -7 61 10 7 21 13 24 13 3 0 14 -6 24 -13z m1305 -67 c0 -9 -4 -8 -9 5
-5 11 -9 27 -9 35 0 9 4 8 9 -5 5 -11 9 -27 9 -35z m25 -90 c4 -24 3 -28 -2
-15 -14 31 -24 83 -13 65 5 -8 11 -31 15 -50z m-1454 47 c0 -2 -15 -16 -32
-33 l-33 -29 29 33 c28 30 36 37 36 29z m1493 -172 l7 -40 -14 35 c-7 19 -16
49 -19 65 l-7 30 14 -25 c7 -14 16 -43 19 -65z m-1675 -35 c-22 -30 -35 -41
-22 -17 9 16 36 47 41 47 2 0 -6 -13 -19 -30z m1758 -237 c-5 -5 -76 207 -75
222 0 6 18 -41 40 -104 21 -63 37 -116 35 -118z m48 -117 c15 -38 25 -71 22
-73 -3 -4 -56 131 -56 144 0 14 10 -6 34 -71z m-2565 -87 c-6 -12 -20 -45 -30
-73 -11 -28 -17 -37 -13 -21 7 36 40 115 49 115 3 0 1 -10 -6 -21z m2631 -83
c17 -43 29 -80 27 -82 -3 -4 -40 85 -63 151 -18 51 8 2 36 -69z m1587 38 c-3
-3 -12 -4 -19 -1 -8 3 -5 6 6 6 11 1 17 -2 13 -5z m-3517 -139 c13 -14 21 -25
18 -25 -2 0 -15 11 -28 25 -13 14 -21 25 -18 25 2 0 15 -11 28 -25z m-763 -7
c-3 -8 -6 -5 -6 6 -1 11 2 17 5 13 3 -3 4 -12 1 -19z m2762 -63 c0 -5 -6 1
-14 15 -8 14 -14 30 -14 35 0 6 6 -1 14 -15 8 -14 14 -29 14 -35z m-2772 -17
c-3 -8 -6 -5 -6 6 -1 11 2 17 5 13 3 -3 4 -12 1 -19z m2793 -33 c0 -5 -5 -3
-10 5 -5 8 -10 20 -10 25 0 6 5 3 10 -5 5 -8 10 -19 10 -25z m14 -31 c3 -8 2
-12 -4 -9 -6 3 -10 10 -10 16 0 14 7 11 14 -7z m-2797 -16 c-3 -8 -6 -5 -6 6
-1 11 2 17 5 13 3 -3 4 -12 1 -19z m2832 -63 c0 -5 -6 1 -14 15 -8 14 -14 30
-14 35 0 6 6 -1 14 -15 8 -14 14 -29 14 -35z m-2731 -134 c41 -50 134 -121
207 -159 28 -14 97 -42 155 -63 124 -45 122 -52 -3 -10 -123 42 -239 106 -312
173 -64 58 -117 132 -129 178 -4 14 5 3 19 -25 15 -27 43 -70 63 -94z m2756
83 c3 -8 2 -12 -4 -9 -6 3 -10 10 -10 16 0 14 7 11 14 -7z m4007 -302 c41 -34
1 -77 -47 -52 -28 16 -30 27 -7 52 20 22 25 22 54 0z m-4211 -18 c-36 -7 -76
-13 -90 -12 -34 0 87 25 125 26 17 0 1 -6 -35 -14z m-145 -24 c-16 -4 -46 -8
-65 -8 l-35 1 35 7 c19 4 49 7 65 8 l30 0 -30 -8z m-1885 -10 c20 -6 21 -8 5
-8 -11 0 -29 3 -40 8 -25 11 1 11 35 0z m1700 -16 c-47 -7 -98 -12 -115 -12
-40 1 120 25 165 25 19 0 -3 -5 -50 -13z m-1637 -1 c-7 -2 -19 -2 -25 0 -7 3
-2 5 12 5 14 0 19 -2 13 -5z m50 -10 c-7 -2 -19 -2 -25 0 -7 3 -2 5 12 5 14 0
19 -2 13 -5z m54 -9 c-3 -3 -12 -4 -19 -1 -8 3 -5 6 6 6 11 1 17 -2 13 -5z
m1366 -1 c-13 -2 -33 -2 -45 0 -13 2 -3 4 22 4 25 0 35 -2 23 -4z m-1300 -10
c-7 -2 -21 -2 -30 0 -10 3 -4 5 12 5 17 0 24 -2 18 -5z m1177 -3 c-30 -5 -77
-8 -105 -7 l-50 0 60 7 c33 4 80 7 105 7 44 0 44 0 -10 -7z m-1092 -7 c-10 -2
-28 -2 -40 0 -13 2 -5 4 17 4 22 1 32 -1 23 -4z m105 -10 c-13 -2 -35 -2 -50
0 -16 2 -5 4 22 4 28 0 40 -2 28 -4z m762 -3 c-76 -8 -332 -14 -405 -9 -47 3
227 14 385 15 l90 1 -70 -7z m5103 -2 c30 -30 0 -78 -37 -58 -26 13 -27 45 -3
59 22 13 26 13 40 -1z m-5615 -5 c-35 -2 -91 -2 -125 0 -35 2 -7 3 62 3 69 0
97 -1 63 -3z m384 -185 c50 -46 17 -132 -50 -132 -49 0 -77 27 -77 75 0 68 78
103 127 57z m1575 -113 c5 -11 -2 -6 -16 10 -14 17 -25 35 -25 40 0 11 25 -20
41 -50z m4430 -132 l48 -47 48 47 c52 51 63 55 82 32 11 -14 6 -23 -33 -63
-26 -26 -47 -52 -47 -57 0 -5 20 -30 45 -55 32 -32 44 -52 39 -63 -10 -28 -37
-20 -79 23 -21 22 -46 40 -55 40 -9 0 -34 -18 -55 -40 -42 -43 -56 -48 -75
-25 -9 11 -3 23 34 63 25 27 46 53 46 59 0 5 -18 27 -40 48 -38 37 -49 63 -33
78 13 14 29 6 75 -40z m-4287 -79 c9 -15 12 -23 6 -20 -11 7 -35 46 -28 46 3
0 12 -12 22 -26z m3087 -68 c45 -34 41 -100 -6 -132 -48 -31 -116 8 -116 66 0
59 77 101 122 66z m-2037 -41 l30 -25 -37 21 c-21 11 -38 23 -38 25 0 10 17 2
45 -21z m-864 -142 c13 -16 12 -17 -3 -4 -17 13 -22 21 -14 21 2 0 10 -8 17
-17z m-2341 -169 l5 -49 50 -5 c36 -4 50 -9 50 -20 0 -11 -14 -16 -50 -20
l-50 -5 -5 -50 c-4 -36 -9 -50 -20 -50 -11 0 -16 14 -18 53 l-3 52 -50 0 c-42
0 -49 3 -49 20 0 17 7 20 50 20 l50 0 0 48 c0 27 3 52 7 56 16 15 28 -4 33
-50z m2845 -355 l40 -43 -40 31 c-22 17 -49 41 -60 53 l-20 23 20 -11 c11 -6
38 -30 60 -53z m-597 -487 c30 -5 28 -22 -3 -22 -19 0 -25 -6 -26 -22 l-2 -23
-4 23 c-3 15 -11 22 -29 22 -30 0 -32 18 -1 22 15 2 23 11 26 28 l4 25 6 -25
c4 -16 15 -26 29 -28z"/>
<path d="M6345 4285 c-16 -8 -57 -26 -89 -40 -33 -14 -57 -28 -54 -30 12 -12
154 29 170 49 31 38 23 44 -27 21z"/>
<path d="M5120 3890 c-14 -10 -45 -24 -70 -31 -25 -7 -49 -16 -55 -22 -6 -6
-3 -7 10 -4 85 24 107 33 126 53 27 29 23 30 -11 4z"/>
<path d="M5088 3800 l-33 -32 35 24 c19 12 37 24 39 25 2 2 2 6 -1 9 -4 3 -21
-9 -40 -26z"/>
<path d="M4990 3780 c0 -5 -13 -7 -29 -4 -32 7 -98 -11 -119 -33 -11 -11 -11
-13 2 -13 19 0 86 -31 104 -48 8 -6 23 -17 35 -24 21 -11 19 -12 -23 -31 -25
-10 -67 -26 -95 -34 -27 -8 -68 -24 -90 -35 -26 -14 -40 -17 -43 -9 -2 7 -9 8
-21 2 -9 -5 -55 -17 -101 -25 -46 -9 -88 -20 -93 -25 -16 -16 322 -263 497
-361 107 -61 141 -51 383 109 185 122 338 240 326 252 -5 5 -47 16 -93 24
-165 30 -377 103 -531 181 -47 24 -90 44 -97 44 -15 0 -15 13 0 28 9 9 9 12 0
12 -7 0 -12 -4 -12 -10z"/>
<path d="M4618 3673 c7 -3 16 -2 19 1 4 3 -2 6 -13 5 -11 0 -14 -3 -6 -6z"/>
<path d="M4578 3663 c7 -3 16 -2 19 1 4 3 -2 6 -13 5 -11 0 -14 -3 -6 -6z"/>
<path d="M4338 3653 c6 -2 18 -2 25 0 6 3 1 5 -13 5 -14 0 -19 -2 -12 -5z"/>
<path d="M4528 3653 c7 -3 16 -2 19 1 4 3 -2 6 -13 5 -11 0 -14 -3 -6 -6z"/>
<path d="M4298 3643 c7 -3 16 -2 19 1 4 3 -2 6 -13 5 -11 0 -14 -3 -6 -6z"/>
<path d="M4338 3603 c7 -3 16 -2 19 1 4 3 -2 6 -13 5 -11 0 -14 -3 -6 -6z"/>
<path d="M4290 3592 c0 -4 10 -13 23 -21 19 -13 21 -12 10 1 -7 8 -10 18 -6
21 3 4 -1 7 -10 7 -9 0 -17 -3 -17 -8z"/>
<path d="M4420 3466 c0 -2 8 -10 18 -17 15 -13 16 -12 3 4 -13 16 -21 21 -21
13z"/>
<path d="M4399 3416 c14 -14 26 -24 29 -22 7 8 -8 25 -31 37 -21 11 -21 10 2
-15z"/>
<path d="M4500 3394 c-60 -47 -75 -65 -25 -29 70 50 88 65 79 65 -5 0 -29 -16
-54 -36z"/>
<path d="M4555 3375 c-16 -14 -26 -25 -21 -25 4 0 21 11 38 25 16 14 26 25 21
25 -4 -1 -21 -12 -38 -25z"/>
<path d="M4475 3314 c-16 -14 -21 -21 -10 -15 30 14 61 40 50 41 -5 0 -23 -12
-40 -26z"/>
<path d="M4537 3289 c12 -12 24 -21 27 -18 2 2 -8 13 -22 23 l-27 19 22 -24z"/>
<path d="M4705 3200 c10 -11 20 -20 23 -20 3 0 -3 9 -13 20 -10 11 -20 20 -23
20 -3 0 3 -9 13 -20z"/>
<path d="M4820 3106 c0 -2 8 -10 18 -17 15 -13 16 -12 3 4 -13 16 -21 21 -21
13z"/>
<path d="M4972 2934 c10 -10 20 -16 22 -13 3 3 -5 11 -17 18 -21 13 -21 12 -5
-5z"/>
<path d="M5017 2899 c7 -7 15 -10 18 -7 3 3 -2 9 -12 12 -14 6 -15 5 -6 -5z"/>
<path d="M8099 5797 c-31 -24 -42 -56 -28 -88 21 -52 68 -63 113 -28 19 15 26
30 26 54 0 56 -69 95 -111 62z"/>
<path d="M8643 5080 c-72 -30 -45 -140 34 -140 36 0 73 38 73 75 0 49 -59 85
-107 65z"/>
<path d="M7433 4778 c-45 -12 -73 -51 -73 -104 0 -125 175 -148 209 -28 23 83
-51 155 -136 132z m87 -48 c12 -12 20 -33 20 -55 0 -45 -29 -75 -73 -75 -69 0
-102 77 -55 127 27 29 80 31 108 3z"/>
<path d="M6051 10047 c-8 -10 -7 -14 4 -14 8 0 15 6 15 14 0 7 -2 13 -4 13 -2
0 -9 -6 -15 -13z"/>
<path d="M2770 9630 c-9 -6 -10 -10 -3 -10 6 0 15 5 18 10 8 12 4 12 -15 0z"/>
<path d="M2390 9309 c0 -5 5 -7 10 -4 6 3 10 8 10 11 0 2 -4 4 -10 4 -5 0 -10
-5 -10 -11z"/>
<path d="M1674 8749 c-19 -22 -19 -22 4 -10 12 6 22 16 22 21 0 15 -5 12 -26
-11z"/>
<path d="M1625 8700 c-3 -5 -1 -10 4 -10 6 0 11 5 11 10 0 6 -2 10 -4 10 -3 0
-8 -4 -11 -10z"/>
<path d="M9056 8197 c3 -10 9 -15 12 -12 3 3 0 11 -7 18 -10 9 -11 8 -5 -6z"/>
<path d="M1039 8153 c-13 -16 -12 -17 4 -4 16 13 21 21 13 21 -2 0 -10 -8 -17
-17z"/>
<path d="M1146 8153 c-6 -14 -5 -15 5 -6 7 7 10 15 7 18 -3 3 -9 -2 -12 -12z"/>
<path d="M340 6696 c0 -2 7 -7 16 -10 8 -3 12 -2 9 4 -6 10 -25 14 -25 6z"/>
<path d="M8930 1869 c0 -5 5 -7 10 -4 6 3 10 8 10 11 0 2 -4 4 -10 4 -5 0 -10
-5 -10 -11z"/>
<path d="M8854 1809 c-3 -6 -2 -15 3 -20 5 -5 9 -1 10 11 2 22 -2 25 -13 9z"/>
<path d="M8900 1790 c0 -11 4 -20 8 -20 4 0 8 9 8 20 0 11 -4 20 -8 20 -4 0
-8 -9 -8 -20z"/>
<path d="M8837 1745 c-4 -8 -3 -16 1 -19 4 -3 9 4 9 15 2 23 -3 25 -10 4z"/>
<path d="M1428 1724 c6 -3 10 -10 7 -14 -3 -5 4 -8 15 -7 28 2 19 21 -11 24
-13 1 -18 0 -11 -3z"/>
<path d="M8831 1703 c16 -27 29 -30 29 -6 0 9 -3 13 -7 10 -3 -4 -13 -1 -21 6
-13 11 -14 9 -1 -10z"/>
<path d="M8771 1674 c0 -11 3 -14 6 -6 3 7 2 16 -1 19 -3 4 -6 -2 -5 -13z"/>
<path d="M1410 1666 c0 -8 4 -17 9 -20 5 -4 7 3 4 14 -6 23 -13 26 -13 6z"/>
<path d="M8817 1663 c-10 -10 -8 -33 2 -33 6 0 9 9 8 20 -1 23 -1 22 -10 13z"/>
<path d="M1480 1651 c0 -5 7 -12 16 -15 14 -5 15 -4 4 9 -14 17 -20 19 -20 6z"/>
<path d="M1450 1601 c0 -5 5 -13 10 -16 6 -3 10 -2 10 4 0 5 -4 13 -10 16 -5
3 -10 2 -10 -4z"/>
<path d="M8715 1600 c-3 -5 -1 -10 4 -10 6 0 11 5 11 10 0 6 -2 10 -4 10 -3 0
-8 -4 -11 -10z"/>
<path d="M1520 1585 c-7 -9 -11 -17 -9 -20 3 -2 10 5 17 15 14 24 10 26 -8 5z"/>
<path d="M8666 1585 c-3 -8 -19 -23 -36 -33 -16 -10 -27 -22 -24 -25 9 -9 58
21 72 44 6 10 8 21 3 23 -5 3 -11 -1 -15 -9z"/>
<path d="M1566 1553 c-6 -14 -5 -15 5 -6 7 7 10 15 7 18 -3 3 -9 -2 -12 -12z"/>
<path d="M8673 1524 c-17 -18 -16 -20 7 -20 21 0 24 5 12 22 -5 9 -10 8 -19
-2z"/>
<path d="M8575 1490 c-3 -5 -1 -10 4 -10 6 0 11 5 11 10 0 6 -2 10 -4 10 -3 0
-8 -4 -11 -10z"/>
<path d="M1665 1450 c-3 -6 1 -7 9 -4 18 7 21 14 7 14 -6 0 -13 -4 -16 -10z"/>
<path d="M1720 1451 c0 -5 12 -17 28 -26 l27 -18 -24 27 c-26 28 -31 31 -31
17z"/>
<path d="M8485 1430 c-3 -5 -2 -10 4 -10 5 0 13 5 16 10 3 6 2 10 -4 10 -5 0
-13 -4 -16 -10z"/>
<path d="M1731 1381 c-8 -5 -9 -11 -3 -15 5 -3 12 1 16 9 6 17 6 18 -13 6z"/>
<path d="M8530 1370 c0 -5 4 -10 9 -10 6 0 13 5 16 10 3 6 -1 10 -9 10 -9 0
-16 -4 -16 -10z"/>
<path d="M1830 1345 c7 -8 17 -15 22 -15 5 0 3 7 -6 15 -8 8 -18 15 -22 15 -3
0 -1 -7 6 -15z"/>
<path d="M8395 1350 c-3 -6 1 -7 9 -4 18 7 21 14 7 14 -6 0 -13 -4 -16 -10z"/>
<path d="M8478 1343 c6 -2 18 -2 25 0 6 3 1 5 -13 5 -14 0 -19 -2 -12 -5z"/>
<path d="M1760 1317 c0 -12 8 -27 18 -34 15 -9 19 -8 19 3 0 8 -6 14 -13 14
-18 0 -6 28 14 33 10 3 5 5 -10 6 -23 1 -28 -3 -28 -22z"/>
<path d="M8410 1319 c0 -5 5 -7 10 -4 6 3 10 8 10 11 0 2 -4 4 -10 4 -5 0 -10
-5 -10 -11z"/>
<path d="M1860 1306 c0 -9 4 -15 9 -12 5 4 11 0 14 -6 2 -7 7 -10 11 -7 3 3
-3 14 -14 24 -18 17 -20 17 -20 1z"/>
<path d="M8325 1290 c-3 -5 -1 -10 4 -10 6 0 11 5 11 10 0 6 -2 10 -4 10 -3 0
-8 -4 -11 -10z"/>
<path d="M8374 1287 c-7 -9 -5 -18 9 -32 20 -20 20 -20 10 0 -6 11 -8 26 -6
33 6 15 1 15 -13 -1z"/>
<path d="M1916 1244 c-4 -9 -4 -19 -1 -22 2 -3 7 3 11 12 4 9 4 19 1 22 -2 3
-7 -3 -11 -12z"/>
<path d="M8340 1246 c0 -21 -21 -31 -31 -15 -7 11 -9 10 -9 -3 0 -24 23 -23
44 1 11 12 14 21 7 26 -6 3 -11 -1 -11 -9z"/>
<path d="M8230 1207 c-24 -36 -32 -53 -15 -32 14 17 17 18 26 5 9 -12 10 -11
5 4 -4 11 -2 23 5 26 6 4 7 10 2 13 -5 3 -16 -4 -23 -16z"/>
<path d="M1915 1189 c-4 -6 -4 -13 -1 -16 3 -4 6 -1 6 5 0 6 7 9 17 5 11 -4
14 -3 9 5 -9 15 -23 15 -31 1z"/>
<path d="M1970 1174 c0 -8 5 -12 10 -9 6 3 10 0 10 -7 0 -10 3 -9 10 2 6 9 5
17 -3 22 -19 12 -27 9 -27 -8z"/>
<path d="M2040 1171 c0 -5 5 -13 10 -16 6 -3 10 -2 10 4 0 5 -4 13 -10 16 -5
3 -10 2 -10 -4z"/>
<path d="M8170 1159 c0 -5 5 -7 10 -4 6 3 10 8 10 11 0 2 -4 4 -10 4 -5 0 -10
-5 -10 -11z"/>
<path d="M1958 1143 c7 -3 16 -2 19 1 4 3 -2 6 -13 5 -11 0 -14 -3 -6 -6z"/>
<path d="M2095 1117 c4 -35 5 -37 13 -37 11 0 8 49 -4 54 -6 2 -10 -5 -9 -17z"/>
<path d="M8219 1111 c4 -22 6 -23 9 -6 2 11 9 23 16 27 6 4 2 6 -10 6 -16 -2
-19 -7 -15 -27z"/>
<path d="M1988 1123 c12 -2 22 -9 22 -14 0 -6 5 -7 11 -3 15 9 -9 24 -36 22
-17 -1 -17 -1 3 -5z"/>
<path d="M2051 1114 c1 -21 16 -47 21 -38 4 5 0 18 -8 29 -8 10 -14 15 -13 9z"/>
<path d="M8179 1115 c0 -5 0 -18 1 -28 1 -10 -4 -26 -11 -35 -7 -10 -3 -8 9 4
19 17 21 25 13 45 -5 13 -11 20 -12 14z"/>
<path d="M8070 1080 c-12 -8 -13 -11 -2 -22 11 -11 13 -10 10 2 -2 8 3 14 10
13 6 -2 12 2 12 7 0 12 -11 13 -30 0z"/>
<path d="M8130 1069 c0 -5 5 -7 10 -4 6 3 10 8 10 11 0 2 -4 4 -10 4 -5 0 -10
-5 -10 -11z"/>
<path d="M2107 1056 c-16 -13 -16 -14 0 -27 10 -7 15 -10 11 -5 -4 5 -3 17 3
27 11 22 10 23 -14 5z"/>
<path d="M2151 1054 c0 -11 3 -14 6 -6 3 7 2 16 -1 19 -3 4 -6 -2 -5 -13z"/>
<path d="M2213 1036 c3 -24 27 -34 27 -11 0 9 -4 14 -9 11 -5 -4 -12 0 -15 6
-3 7 -5 4 -3 -6z"/>
<path d="M8097 1033 c-4 -3 -7 -11 -7 -17 0 -6 5 -5 12 2 6 6 9 14 7 17 -3 3
-9 2 -12 -2z"/>
<path d="M2166 1022 c-3 -5 1 -9 9 -9 8 0 12 4 9 9 -3 4 -7 8 -9 8 -2 0 -6 -4
-9 -8z"/>
<path d="M7974 1018 c-10 -16 -11 -56 -2 -71 10 -17 18 -5 21 32 1 17 6 31 10
31 5 0 5 5 2 10 -8 13 -22 13 -31 -2z"/>
<path d="M8025 1010 c-3 -6 1 -7 9 -4 18 7 21 14 7 14 -6 0 -13 -4 -16 -10z"/>
<path d="M2277 996 c-4 -10 -1 -13 8 -9 8 3 12 9 9 14 -7 12 -11 11 -17 -5z"/>
<path d="M2175 990 c-3 -6 1 -7 9 -4 18 7 21 14 7 14 -6 0 -13 -4 -16 -10z"/>
<path d="M7908 976 c-8 -7 -28 -21 -45 -30 -18 -9 -35 -21 -39 -27 -4 -8 -3
-9 4 -5 14 8 64 -3 57 -14 -9 -14 46 -18 60 -4 7 8 18 14 24 14 6 0 11 5 11
10 0 6 -6 10 -14 10 -22 0 -30 19 -15 36 6 8 10 17 7 19 -3 3 -11 -6 -18 -20
-8 -14 -20 -23 -27 -21 -7 3 -15 1 -18 -4 -3 -4 0 -10 6 -12 7 -2 10 -8 8 -14
-2 -5 -12 -2 -22 8 -17 18 -16 19 18 33 19 9 35 20 35 25 0 14 -16 12 -32 -4z"/>
<path d="M8040 980 c0 -5 5 -10 10 -10 6 0 10 5 10 10 0 6 -4 10 -10 10 -5 0
-10 -4 -10 -10z"/>
<path d="M2225 950 c3 -5 12 -7 20 -3 21 7 19 13 -6 13 -11 0 -18 -4 -14 -10z"/>
<path d="M2347 940 c3 -11 7 -20 9 -20 2 0 4 9 4 20 0 11 -4 20 -9 20 -5 0 -7
-9 -4 -20z"/>
<path d="M2286 911 c-3 -5 1 -14 9 -21 12 -10 20 -10 38 -1 12 6 14 9 5 7 -23
-7 -50 3 -42 15 3 5 3 9 0 9 -3 0 -7 -4 -10 -9z"/>
<path d="M2455 890 c10 -11 20 -20 23 -20 3 0 -3 9 -13 20 -10 11 -20 20 -23
20 -3 0 3 -9 13 -20z"/>
<path d="M7790 900 c0 -5 5 -10 10 -10 6 0 10 5 10 10 0 6 -4 10 -10 10 -5 0
-10 -4 -10 -10z"/>
<path d="M2413 878 c-1 -11 1 -16 5 -12 4 5 11 12 15 15 5 3 2 9 -5 12 -9 3
-14 -3 -15 -15z"/>
<path d="M7825 890 c-3 -5 -2 -10 4 -10 5 0 13 5 16 10 3 6 2 10 -4 10 -5 0
-13 -4 -16 -10z"/>
<path d="M2360 880 c0 -5 5 -10 11 -10 5 0 7 5 4 10 -3 6 -8 10 -11 10 -2 0
-4 -4 -4 -10z"/>
<path d="M7763 883 c-7 -2 -10 -10 -7 -17 3 -8 -2 -16 -12 -20 -11 -4 -15 -2
-11 8 5 13 2 13 -18 4 -15 -6 -25 -20 -26 -32 0 -12 -3 -15 -6 -9 -3 9 -22 4
-64 -17 -51 -26 -59 -34 -59 -58 1 -23 2 -24 11 -10 10 17 39 14 39 -4 0 -6
-7 -8 -15 -5 -8 4 -17 2 -20 -3 -4 -6 6 -10 20 -10 16 0 24 -4 20 -11 -4 -6
-14 -8 -22 -5 -9 4 -12 1 -8 -7 4 -6 -3 -1 -14 13 -11 14 -21 31 -21 38 0 15
-17 16 -26 0 -4 -7 -1 -16 8 -22 14 -8 13 -12 -6 -27 -12 -10 -17 -21 -12 -26
5 -4 11 -2 13 5 3 6 9 12 15 12 6 0 8 -7 4 -15 -4 -12 4 -10 37 6 23 12 46 28
50 35 4 8 15 14 24 14 9 0 37 12 62 27 39 23 43 27 26 34 -18 6 -19 7 -2 14 9
4 17 16 17 27 0 11 5 28 11 40 12 22 10 27 -8 21z m-63 -93 c0 -5 -5 -10 -11
-10 -5 0 -7 5 -4 10 3 6 8 10 11 10 2 0 4 -4 4 -10z m-76 -25 c-6 -16 -24 -21
-24 -7 0 11 11 22 21 22 5 0 6 -7 3 -15z"/>
<path d="M2578 798 c10 -28 9 -39 -2 -57 -7 -10 -6 -12 4 -6 9 6 12 4 8 -7 -7
-18 25 -40 47 -32 9 4 15 1 15 -8 0 -19 42 -38 69 -31 13 3 21 1 21 -6 0 -7 5
-9 10 -6 8 5 7 12 -2 22 -7 9 -11 26 -10 39 3 17 -5 27 -30 39 l-33 16 29 -24
c19 -16 24 -27 17 -32 -14 -8 -57 43 -53 62 6 28 -45 1 -58 -30 -7 -17 -9 -18
-9 -5 -1 10 9 27 22 38 16 16 17 19 5 15 -12 -5 -18 -2 -18 8 0 8 -7 18 -16
21 -23 9 -24 8 -16 -16z m72 -82 c0 -2 -9 -6 -20 -9 -11 -3 -18 -1 -14 4 5 9
34 13 34 5z"/>
<path d="M2756 695 c-3 -9 0 -15 9 -15 8 0 15 -7 15 -15 0 -13 19 -20 43 -16
18 3 38 -29 32 -50 -5 -15 -4 -19 4 -15 6 4 11 2 11 -4 0 -21 -25 -4 -28 18
-4 24 -22 20 -22 -4 0 -15 87 -60 97 -50 3 3 12 -2 20 -10 9 -8 22 -13 29 -10
8 3 14 -1 14 -8 0 -7 17 -20 38 -28 30 -12 39 -12 39 -2 0 7 -12 16 -26 19
-25 7 -25 8 -6 16 16 8 15 8 -7 4 -25 -5 -28 -3 -28 22 0 20 3 24 9 14 6 -9
11 -10 15 -2 4 6 12 11 17 11 6 0 7 -5 3 -12 -4 -7 -3 -8 5 -4 16 10 6 22 -29
34 -31 11 -35 7 -31 -27 2 -7 -2 -10 -8 -6 -7 3 -8 0 -5 -9 9 -22 -9 -20 -25
3 -8 11 -20 17 -28 14 -7 -3 -13 0 -13 7 0 6 10 11 23 10 38 -4 47 0 47 16 0
12 -6 15 -21 11 -12 -3 -22 0 -26 9 -6 17 -39 19 -47 2 -3 -7 -4 1 -1 17 4 23
3 26 -5 15 -9 -13 -12 -13 -25 4 -8 11 -19 15 -27 10 -7 -4 -10 -3 -5 1 9 10
-21 45 -38 45 -7 0 -15 -7 -19 -15z m44 -16 c0 -6 -4 -7 -10 -4 -5 3 -10 11
-10 16 0 6 5 7 10 4 6 -3 10 -11 10 -16z"/>
<path d="M7453 679 c-1 -12 3 -16 13 -12 18 6 18 19 1 26 -7 3 -13 -3 -14 -14z"/>
<path d="M7410 670 c0 -5 5 -10 11 -10 5 0 7 5 4 10 -3 6 -8 10 -11 10 -2 0
-4 -4 -4 -10z"/>
<path d="M3171 486 c-1 -26 2 -37 9 -30 6 6 6 21 1 39 -9 30 -9 30 -10 -9z"/>
<path d="M7030 499 c-39 -20 -36 -25 7 -8 15 7 39 11 53 10 20 -1 22 1 10 9
-20 13 -28 11 -70 -11z"/>
<path d="M7070 476 c0 -16 6 -26 14 -26 9 0 12 7 9 20 -8 31 -23 34 -23 6z"/>
<path d="M3212 465 c-7 -8 -9 -15 -4 -15 5 0 15 7 22 15 16 19 -1 19 -18 0z"/>
<path d="M3262 450 c10 -15 10 -22 0 -32 -17 -17 -15 -24 8 -25 15 -1 20 4 20
22 0 13 6 26 13 28 6 3 2 6 -11 6 -13 1 -20 5 -17 11 3 6 -1 10 -9 10 -14 0
-14 -3 -4 -20z"/>
<path d="M7017 433 c-4 -3 -7 -11 -7 -17 0 -6 5 -5 12 2 6 6 9 14 7 17 -3 3
-9 2 -12 -2z"/>
<path d="M3210 420 c0 -5 7 -10 16 -10 8 0 12 5 9 10 -3 6 -10 10 -16 10 -5 0
-9 -4 -9 -10z"/>
<path d="M6797 413 c-10 -9 -9 -33 1 -33 4 0 8 9 9 20 2 21 0 24 -10 13z"/>
<path d="M3416 395 c4 -8 8 -15 10 -15 2 0 4 7 4 15 0 8 -4 15 -10 15 -5 0 -7
-7 -4 -15z"/>
<path d="M6830 401 c0 -5 7 -12 16 -15 24 -9 27 -7 10 9 -17 17 -26 19 -26 6z"/>
<path d="M6900 408 c-1 -5 -3 -11 -4 -15 -1 -5 -5 -13 -9 -20 -10 -16 4 -22
28 -12 11 4 15 8 8 8 -6 1 -14 11 -16 24 -2 12 -5 19 -7 15z"/>
<path d="M3292 384 c-7 -8 -8 -14 -3 -14 10 0 25 19 20 25 -2 1 -10 -3 -17
-11z"/>
<path d="M3453 392 c-9 -6 -7 -11 7 -20 12 -7 20 -8 20 -2 0 5 -6 10 -12 10
-9 0 -8 4 2 10 8 5 11 10 5 10 -5 0 -15 -4 -22 -8z"/>
<path d="M6713 384 c-29 -11 -40 -20 -36 -30 3 -8 0 -14 -6 -14 -6 0 -11 5
-11 10 0 6 -9 10 -20 10 -11 0 -20 -5 -20 -11 0 -5 -4 -7 -10 -4 -5 3 -10 1
-10 -4 0 -6 -7 -11 -16 -11 -14 0 -14 -3 -4 -15 7 -8 19 -15 26 -15 21 0 17
-20 -3 -21 -15 0 -15 -2 2 -9 32 -14 35 -12 35 21 0 35 23 36 28 1 3 -20 4
-20 55 -5 29 8 57 19 64 25 7 5 18 6 25 2 9 -5 8 -2 -2 10 -13 16 -12 20 3 31
24 18 21 21 -18 21 -19 0 -35 -4 -35 -8 0 -4 5 -8 10 -8 6 0 10 -7 10 -15 0
-8 -4 -15 -10 -15 -5 0 -10 7 -10 15 0 27 -19 16 -22 -12 -3 -24 -8 -28 -32
-28 -16 1 -32 7 -34 14 -3 10 2 12 22 7 23 -6 28 -3 37 22 6 16 20 34 32 40
33 16 -1 13 -50 -4z m7 -39 c0 -8 -4 -15 -10 -15 -5 0 -10 7 -10 15 0 8 5 15
10 15 6 0 10 -7 10 -15z m-93 -31 c-3 -3 -12 -4 -19 -1 -8 3 -5 6 6 6 11 1 17
-2 13 -5z"/>
<path d="M6958 383 c7 -3 16 -2 19 1 4 3 -2 6 -13 5 -11 0 -14 -3 -6 -6z"/>
<path d="M3393 363 c9 -2 25 -2 35 0 9 3 1 5 -18 5 -19 0 -27 -2 -17 -5z"/>
<path d="M3526 295 c4 -8 8 -15 10 -15 2 0 4 7 4 15 0 8 -4 15 -10 15 -5 0 -7
-7 -4 -15z"/>
<path d="M4974 118 c-3 -5 -10 -6 -15 -3 -5 4 -9 0 -9 -9 0 -8 6 -16 13 -19
10 -4 10 -7 0 -18 -11 -11 -13 -11 -13 1 0 7 -2 11 -5 8 -3 -3 -3 -13 1 -22 5
-12 20 -16 70 -16 36 0 64 4 64 10 0 6 5 10 11 10 5 0 7 -4 4 -10 -4 -6 35
-10 108 -10 93 0 116 3 121 15 3 9 0 15 -8 15 -14 0 -30 29 -21 38 3 3 5 0 5
-6 0 -17 37 -15 44 3 4 10 -1 15 -17 14 -12 0 -41 2 -64 4 -24 2 -43 0 -43 -5
0 -4 -8 -4 -17 -1 -17 7 -17 6 0 -20 23 -35 22 -39 -9 -25 -17 8 -24 18 -21
30 5 16 -3 18 -66 19 -40 1 -85 2 -100 3 -16 1 -31 -2 -33 -6z m86 -19 c-11
-8 -12 -12 -2 -16 17 -7 15 -23 -3 -23 -8 0 -15 5 -15 10 0 13 -52 1 -63 -14
-6 -7 -7 -4 -3 7 3 10 6 21 6 23 0 2 9 4 20 4 11 0 20 5 20 10 0 6 12 10 28
10 22 0 24 -2 12 -11z m40 1 c0 -5 9 -10 20 -10 11 0 20 -4 20 -10 0 -11 -20
-13 -44 -4 -17 7 -22 34 -6 34 6 0 10 -4 10 -10z m60 0 c0 -5 -4 -10 -10 -10
-5 0 -10 5 -10 10 0 6 5 10 10 10 6 0 10 -4 10 -10z m128 -17 c9 -27 8 -28
-22 -28 -19 0 -31 5 -30 13 1 6 2 19 3 27 2 26 38 17 49 -12z m-123 -13 c3 -5
1 -10 -4 -10 -6 0 -11 5 -11 10 0 6 2 10 4 10 3 0 8 -4 11 -10z"/>
<path d="M5376 122 c-3 -6 -2 -13 4 -17 15 -9 12 -19 -11 -33 -19 -12 -20 -11
-15 10 6 19 4 18 -9 -5 -19 -34 -12 -46 16 -29 11 7 24 10 29 7 6 -4 7 1 3 11
-4 10 -2 15 4 11 6 -4 10 7 10 26 0 18 -2 26 -5 18 -3 -10 -6 -10 -12 -1 -5 8
-10 9 -14 2z"/>
</g>
</svg>
